# xmcd CD database file
#
# Track frame offsets:
#	150
#	29044
#	66468
#	97068
#	131380
#	154627
#	188886
#	224399
#	256104
#
# Disc length: 3695 seconds
#
# Revision: 0
# Processed by: cddbd v1.5.2PL0 Copyright (c) Steve Scherf et al.
# Submitted via: CDex 1.51
#
DISCID=820e6d09
DTITLE=Bill Heid - Wylie Ave
DYEAR=2009
DGENRE=Jazz
TTITLE0=At the Hurricane
TTITLE1=Always Larry
TTITLE2=The Slinky
TTITLE3=Waltz of the Corgies
TTITLE4=Who Else?
TTITLE5=Grantulant
TTITLE6=Wylie Avenue
TTITLE7=Toe Tappin'
TTITLE8=I Want You
EXTD=YEAR: 2009
EXTT0=
EXTT1=
EXTT2=
EXTT3=
EXTT4=
EXTT5=
EXTT6=
EXTT7=
EXTT8=
PLAYORDER=
